<?xml version="1.0" encoding="UTF-8" standalone="no"?>
<!-- Created with Inkscape (http://www.inkscape.org/) -->

<svg
   xmlns:dc="http://purl.org/dc/elements/1.1/"
   xmlns:cc="http://creativecommons.org/ns#"
   xmlns:rdf="http://www.w3.org/1999/02/22-rdf-syntax-ns#"
   xmlns:svg="http://www.w3.org/2000/svg"
   xmlns="http://www.w3.org/2000/svg"
   xmlns:sodipodi="http://sodipodi.sourceforge.net/DTD/sodipodi-0.dtd"
   xmlns:inkscape="http://www.inkscape.org/namespaces/inkscape"
   width="96"
   height="96"
   viewBox="0 0 25.399999 25.400001"
   version="1.1"
   id="svg159"
   inkscape:version="0.92.5 (2060ec1f9f, 2020-04-08)"
   sodipodi:docname="JOGOE.svg">
  <defs
     id="defs153" />
  <sodipodi:namedview
     id="base"
     pagecolor="#ffffff"
     bordercolor="#666666"
     borderopacity="1.0"
     inkscape:pageopacity="0.0"
     inkscape:pageshadow="2"
     inkscape:zoom="2.8"
     inkscape:cx="153.96011"
     inkscape:cy="6.3295063"
     inkscape:document-units="mm"
     inkscape:current-layer="layer1"
     showgrid="false"
     units="px"
     inkscape:window-width="1366"
     inkscape:window-height="712"
     inkscape:window-x="0"
     inkscape:window-y="0"
     inkscape:window-maximized="1" />
  <metadata
     id="metadata156">
    <rdf:RDF>
      <cc:Work
         rdf:about="">
        <dc:format>image/svg+xml</dc:format>
        <dc:type
           rdf:resource="http://purl.org/dc/dcmitype/StillImage" />
        <dc:title></dc:title>
      </cc:Work>
    </rdf:RDF>
  </metadata>
  <g
     inkscape:label="Camada 1"
     inkscape:groupmode="layer"
     id="layer1"
     transform="translate(0,-271.59998)">
    <g
       id="_x32_8._School_2_"
       transform="matrix(0.04506917,0,0,0.04877055,3.1857614,273.58677)">
	<g
   id="XMLID_76_">
		<g
   id="g241">
			<g
   id="g207">
				<polygon
   id="polygon205"
   points="376.95,463.15 376.95,255.6 468.67,255.6 468.68,255.61 468.68,463.15 "
   style="fill:#f2d59f" />

			</g>

			<g
   id="g211">
				<polygon
   id="polygon209"
   points="416.91,186.8 468.67,255.6 376.95,255.6 376.95,186.8 "
   style="fill:#8ecac1" />

			</g>

			<g
   id="g215">
				<path
   id="path213"
   d="m 376.95,255.6 v 207.55 h -91.74 v -100.4 h -45.87 -45.87 v 100.4 H 101.73 V 255.6 186.8 L 239.34,118 376.95,186.8 Z M 261.92,205.41 c 0,-12.47 -10.11,-22.58 -22.58,-22.58 -12.47,0 -22.58,10.11 -22.58,22.58 0,12.47 10.11,22.58 22.58,22.58 12.47,0 22.58,-10.11 22.58,-22.58 z"
   style="fill:#f2d59f"
   inkscape:connector-curvature="0" />

			</g>

			<g
   id="g219">
				<polygon
   id="polygon217"
   points="326.06,68.17 239.34,68.17 239.34,15.53 326.06,15.53 294.99,41.85 "
   style="fill:#ff7124" />

			</g>

			<g
   id="g223">
				<rect
   id="rect221"
   height="100.4"
   width="45.869999"
   style="fill:#ff7124"
   y="362.75"
   x="239.34" />

			</g>

			<g
   id="g227">
				<circle
   id="circle225"
   r="22.58"
   cy="205.41"
   cx="239.34"
   style="fill:#e6b263" />

			</g>

			<g
   id="g231">
				<rect
   id="rect229"
   height="100.4"
   width="45.869999"
   style="fill:#ff7124"
   y="362.75"
   x="193.47" />

			</g>

			<g
   id="g235">
				<polygon
   id="polygon233"
   points="10,463.15 10,255.61 10.01,255.6 101.73,255.6 101.73,463.15 "
   style="fill:#f2d59f" />

			</g>

			<g
   id="g239">
				<polygon
   id="polygon237"
   points="101.73,186.8 101.73,255.6 10.01,255.6 61.77,186.8 "
   style="fill:#8ecac1" />

			</g>

		</g>

		<g
   id="g335">
			<g
   id="g245">
				<path
   id="path243"
   d="m 376.95,473.15 h -91.74 c -5.522,0 -10,-4.477 -10,-10 0,-5.523 4.478,-10 10,-10 h 91.74 c 5.522,0 10,4.477 10,10 0,5.523 -4.477,10 -10,10 z"
   style="fill:#5e2a41"
   inkscape:connector-curvature="0" />

			</g>

			<g
   id="g249">
				<path
   id="path247"
   d="m 193.47,473.15 h -91.74 c -5.522,0 -10,-4.477 -10,-10 0,-5.523 4.478,-10 10,-10 h 91.74 c 5.522,0 10,4.477 10,10 0,5.523 -4.478,10 -10,10 z"
   style="fill:#5e2a41"
   inkscape:connector-curvature="0" />

			</g>

			<g
   id="g253">
				<path
   id="path251"
   d="M 101.729,473.15 H 10 c -5.523,0 -10,-4.477 -10,-10 V 255.61 c 0,-5.523 4.477,-10 10,-10 5.522,0 10,4.477 10,10 v 197.54 h 81.729 c 5.522,0 10,4.477 10,10 0,5.523 -4.477,10 -10,10 z"
   style="fill:#5e2a41"
   inkscape:connector-curvature="0" />

			</g>

			<g
   id="g257">
				<path
   id="path255"
   d="M 101.729,265.6 H 10.01 c -5.522,0 -10,-4.477 -10,-10 0,-5.523 4.478,-10 10,-10 h 91.72 c 5.522,0 10,4.477 10,10 -0.001,5.522 -4.478,10 -10.001,10 z"
   style="fill:#5e2a41"
   inkscape:connector-curvature="0" />

			</g>

			<g
   id="g261">
				<path
   id="path259"
   d="m 468.67,265.6 h -91.72 c -5.522,0 -10,-4.477 -10,-10 0,-5.523 4.478,-10 10,-10 h 91.72 c 5.522,0 10,4.477 10,10 0,5.522 -4.478,10 -10,10 z"
   style="fill:#5e2a41"
   inkscape:connector-curvature="0" />

			</g>

			<g
   id="g265">
				<path
   id="path263"
   d="m 468.68,473.15 h -91.73 c -5.522,0 -10,-4.477 -10,-10 0,-5.523 4.478,-10 10,-10 h 81.729 V 255.61 c 0,-5.523 4.478,-10 10,-10 5.522,0 10,4.477 10,10 v 207.54 c 0.001,5.523 -4.477,10 -9.999,10 z"
   style="fill:#5e2a41"
   inkscape:connector-curvature="0" />

			</g>

			<g
   id="g269">
				<path
   id="path267"
   d="m 285.21,472.15 h -91.74 c -4.971,0 -9,-4.029 -9,-9 v -100.4 c 0,-4.971 4.029,-9 9,-9 h 91.74 c 4.971,0 9,4.029 9,9 v 100.4 c 0,4.971 -4.029,9 -9,9 z m -82.74,-18 h 73.74 v -82.4 h -73.74 z"
   style="fill:#5e2a41"
   inkscape:connector-curvature="0" />

			</g>

			<g
   id="g273">
				<path
   id="path271"
   d="m 55.87,424.57 c -5.522,0 -10,-4.477 -10,-10 V 392.6 c 0,-5.523 4.478,-10 10,-10 5.522,0 10,4.477 10,10 v 21.97 c 0,5.523 -4.477,10 -10,10 z"
   style="fill:#5e2a41"
   inkscape:connector-curvature="0" />

			</g>

			<g
   id="g277">
				<path
   id="path275"
   d="m 422.81,424.57 c -5.522,0 -10,-4.477 -10,-10 V 392.6 c 0,-5.523 4.478,-10 10,-10 5.522,0 10,4.477 10,10 v 21.97 c 0,5.523 -4.478,10 -10,10 z"
   style="fill:#5e2a41"
   inkscape:connector-curvature="0" />

			</g>

			<g
   id="g281">
				<path
   id="path279"
   d="m 55.87,345.09 c -5.522,0 -10,-4.477 -10,-10 v -21.97 c 0,-5.523 4.478,-10 10,-10 5.522,0 10,4.477 10,10 v 21.97 c 0,5.523 -4.477,10 -10,10 z"
   style="fill:#5e2a41"
   inkscape:connector-curvature="0" />

			</g>

			<g
   id="g285">
				<path
   id="path283"
   d="m 422.81,345.09 c -5.522,0 -10,-4.477 -10,-10 v -21.97 c 0,-5.523 4.478,-10 10,-10 5.522,0 10,4.477 10,10 v 21.97 c 0,5.523 -4.478,10 -10,10 z"
   style="fill:#5e2a41"
   inkscape:connector-curvature="0" />

			</g>

			<g
   id="g289">
				<path
   id="path287"
   d="m 147.6,394.71 c -5.522,0 -10,-4.477 -10,-10 v -21.96 c 0,-5.523 4.478,-10 10,-10 5.522,0 10,4.477 10,10 v 21.96 c 0,5.523 -4.478,10 -10,10 z"
   style="fill:#5e2a41"
   inkscape:connector-curvature="0" />

			</g>

			<g
   id="g293">
				<path
   id="path291"
   d="m 331.08,394.71 c -5.522,0 -10,-4.477 -10,-10 v -21.96 c 0,-5.523 4.478,-10 10,-10 5.523,0 10,4.477 10,10 v 21.96 c 0,5.523 -4.477,10 -10,10 z"
   style="fill:#5e2a41"
   inkscape:connector-curvature="0" />

			</g>

			<g
   id="g297">
				<path
   id="path295"
   d="m 147.6,315.23 c -5.522,0 -10,-4.477 -10,-10 v -21.96 c 0,-5.523 4.478,-10 10,-10 5.522,0 10,4.477 10,10 v 21.96 c 0,5.523 -4.478,10 -10,10 z"
   style="fill:#5e2a41"
   inkscape:connector-curvature="0" />

			</g>

			<g
   id="g301">
				<path
   id="path299"
   d="m 331.08,315.23 c -5.522,0 -10,-4.477 -10,-10 v -21.96 c 0,-5.523 4.478,-10 10,-10 5.523,0 10,4.477 10,10 v 21.96 c 0,5.523 -4.477,10 -10,10 z"
   style="fill:#5e2a41"
   inkscape:connector-curvature="0" />

			</g>

			<g
   id="g305">
				<path
   id="path303"
   d="m 239.34,315.23 c -5.522,0 -10,-4.477 -10,-10 v -21.96 c 0,-5.523 4.478,-10 10,-10 5.523,0 10,4.477 10,10 v 21.96 c 0,5.523 -4.478,10 -10,10 z"
   style="fill:#5e2a41"
   inkscape:connector-curvature="0" />

			</g>

			<g
   id="g309">
				<path
   id="path307"
   d="m 468.674,265.607 c -2.639,0 -5.271,-1.039 -7.235,-3.101 -0.267,-0.28 -0.527,-0.586 -0.76,-0.895 L 411.92,196.8 h -34.97 c -5.522,0 -10,-4.477 -10,-10 0,-5.523 4.478,-10 10,-10 h 39.96 c 3.143,0 6.102,1.477 7.991,3.988 l 51.684,68.698 c 3.102,4.005 2.733,9.791 -1.014,13.36 -1.936,1.845 -4.42,2.761 -6.897,2.761 z"
   style="fill:#5e2a41"
   inkscape:connector-curvature="0" />

			</g>

			<g
   id="g313">
				<path
   id="path311"
   d="m 10.001,265.603 c -2.478,0 -4.958,-0.914 -6.892,-2.756 -3.769,-3.589 -4.127,-9.413 -0.969,-13.418 l 51.639,-68.64 c 1.89,-2.511 4.849,-3.988 7.991,-3.988 h 39.96 c 5.522,0 10,4.477 10,10 0,5.523 -4.478,10 -10,10 H 66.76 l -48.759,64.811 c -0.232,0.309 -0.483,0.604 -0.75,0.885 -1.967,2.064 -4.607,3.106 -7.25,3.106 z"
   style="fill:#5e2a41"
   inkscape:connector-curvature="0" />

			</g>

			<g
   id="g317">
				<path
   id="path315"
   d="m 239.34,472.15 c -4.971,0 -9,-4.029 -9,-9 v -100.4 c 0,-4.971 4.029,-9 9,-9 4.971,0 9,4.029 9,9 v 100.4 c 0,4.971 -4.029,9 -9,9 z"
   style="fill:#5e2a41"
   inkscape:connector-curvature="0" />

			</g>

			<g
   id="g321">
				<path
   id="path319"
   d="m 376.95,473.15 c -5.522,0 -10,-4.477 -10,-10 V 192.98 l -127.61,-63.8 -127.61,63.8 v 270.17 c 0,5.523 -4.478,10 -10,10 -5.522,0 -10,-4.477 -10,-10 V 186.8 c 0,-3.788 2.141,-7.251 5.528,-8.944 l 137.61,-68.8 c 2.814,-1.407 6.129,-1.407 8.943,0 l 137.61,68.8 c 3.388,1.694 5.528,5.157 5.528,8.944 v 276.35 c 10e-4,5.523 -4.476,10 -9.999,10 z"
   style="fill:#5e2a41"
   inkscape:connector-curvature="0" />

			</g>

			<g
   id="g325">
				<path
   id="path323"
   d="m 239.34,128 c -5.522,0 -10,-4.477 -10,-10 V 68.17 c 0,-5.523 4.478,-10 10,-10 5.523,0 10,4.477 10,10 V 118 c 0,5.523 -4.478,10 -10,10 z"
   style="fill:#5e2a41"
   inkscape:connector-curvature="0" />

			</g>

			<g
   id="g329">
				<path
   id="path327"
   d="m 326.06,78.17 h -86.72 c -5.522,0 -10,-4.477 -10,-10 V 15.53 c 0,-5.523 4.478,-10 10,-10 h 86.72 c 4.195,0 7.944,2.619 9.389,6.558 1.444,3.939 0.276,8.361 -2.925,11.073 l -22.063,18.69 22.063,18.69 c 3.201,2.712 4.369,7.134 2.925,11.073 -1.445,3.937 -5.194,6.556 -9.389,6.556 z m -76.72,-20 h 49.444 l -10.258,-8.69 c -2.243,-1.9 -3.536,-4.69 -3.536,-7.63 0,-2.94 1.293,-5.73 3.536,-7.63 l 10.258,-8.69 H 249.34 Z"
   style="fill:#5e2a41"
   inkscape:connector-curvature="0" />

			</g>

			<g
   id="g333">
				<path
   id="path331"
   d="m 239.34,236.99 c -17.413,0 -31.58,-14.167 -31.58,-31.58 0,-17.413 14.167,-31.58 31.58,-31.58 17.413,0 31.58,14.167 31.58,31.58 0,17.413 -14.167,31.58 -31.58,31.58 z m 0,-45.16 c -7.488,0 -13.58,6.092 -13.58,13.58 0,7.488 6.092,13.58 13.58,13.58 7.488,0 13.58,-6.092 13.58,-13.58 0,-7.488 -6.092,-13.58 -13.58,-13.58 z"
   style="fill:#5e2a41"
   inkscape:connector-curvature="0" />

			</g>

		</g>

	</g>

</g>
    <text
       xml:space="preserve"
       style="font-style:normal;font-variant:normal;font-weight:normal;font-stretch:normal;font-size:11.92395306px;line-height:1.25;font-family:Broadway;-inkscape-font-specification:Broadway;text-align:start;letter-spacing:0px;word-spacing:0px;text-anchor:start;fill:#8ecac1;fill-opacity:1;stroke:none;stroke-width:0.29809883;"
       x="0.092877984"
       y="273.32391"
       id="text416"
       transform="scale(0.97192382,1.0288872)"><tspan
         sodipodi:role="line"
         id="tspan414"
         x="0.092877984"
         y="273.32391"
         style="stroke-width:0.29809883;fill:#8ecac1;fill-opacity:1;">E</tspan></text>
  </g>
</svg>
