<?xml version="1.0" encoding="UTF-8" standalone="no"?>
<!-- Created with Inkscape (http://www.inkscape.org/) -->

<svg
   xmlns:dc="http://purl.org/dc/elements/1.1/"
   xmlns:cc="http://creativecommons.org/ns#"
   xmlns:rdf="http://www.w3.org/1999/02/22-rdf-syntax-ns#"
   xmlns:svg="http://www.w3.org/2000/svg"
   xmlns="http://www.w3.org/2000/svg"
   xmlns:sodipodi="http://sodipodi.sourceforge.net/DTD/sodipodi-0.dtd"
   xmlns:inkscape="http://www.inkscape.org/namespaces/inkscape"
   width="96"
   height="96"
   viewBox="0 0 25.399999 25.400001"
   version="1.1"
   id="svg1547"
   inkscape:version="0.92.5 (2060ec1f9f, 2020-04-08)"
   sodipodi:docname="JOGOI.svg">
  <defs
     id="defs1541" />
  <sodipodi:namedview
     id="base"
     pagecolor="#ffffff"
     bordercolor="#666666"
     borderopacity="1.0"
     inkscape:pageopacity="0.0"
     inkscape:pageshadow="2"
     inkscape:zoom="3.959798"
     inkscape:cx="115.77503"
     inkscape:cy="62.2233"
     inkscape:document-units="mm"
     inkscape:current-layer="layer1"
     showgrid="false"
     units="px"
     inkscape:window-width="1366"
     inkscape:window-height="712"
     inkscape:window-x="0"
     inkscape:window-y="0"
     inkscape:window-maximized="1" />
  <metadata
     id="metadata1544">
    <rdf:RDF>
      <cc:Work
         rdf:about="">
        <dc:format>image/svg+xml</dc:format>
        <dc:type
           rdf:resource="http://purl.org/dc/dcmitype/StillImage" />
        <dc:title></dc:title>
      </cc:Work>
    </rdf:RDF>
  </metadata>
  <g
     inkscape:label="Camada 1"
     inkscape:groupmode="layer"
     id="layer1"
     transform="translate(0,-271.59998)">
    <g
       id="g1685"
       transform="matrix(0.04478828,0,0,0.04738034,4.4002597,274.9524)">
      <g
         id="g1603">
	<path
   id="path1549"
   d="M 253.456,242.967 C 248.957,186.121 240.935,124.604 226.657,92.964 l -8.927,-7.351 c -4.458,-2.363 -8.708,-1.988 -11.186,0.149 l -0.448,0.544 c 14.789,35.071 18.338,100.11 18.052,157.994 4.66,-2.721 10.055,-4.3 15.852,-4.3 4.808,0 9.365,1.067 13.456,2.967 z"
   style="fill:#82574a"
   inkscape:connector-curvature="0" />

	<path
   id="path1551"
   d="m 248.506,352.773 c 3.419,-0.272 6.875,-0.476 10.366,-0.604 -0.387,-17.155 -1.297,-46.614 -3.375,-80.169 h -31.763 c -0.886,36.007 -2.912,66.24 -3.949,80.024 1.402,-0.015 2.807,-0.024 4.216,-0.024 8.311,0 16.49,0.266 24.505,0.773 z"
   style="fill:#82574a"
   inkscape:connector-curvature="0" />

	<path
   id="path1553"
   d="m 224,352 c 8.15,0 16.127,0.324 23.991,0.816 0.172,-0.014 0.343,-0.029 0.515,-0.042 C 240.491,352.266 232.312,352 224,352 Z"
   style="fill:#ffb996"
   inkscape:connector-curvature="0" />

	<path
   id="path1555"
   d="m 247.991,352.816 c 0.171,0.011 0.344,0.019 0.515,0.03 -50.671,4.041 -93.02,23.531 -112.892,50.204 3.134,2.26 5.701,4.951 11.811,4.951 10.547,0 10.547,-8 21.093,-8 10.535,0 10.535,8 21.07,8 10.547,0 10.547,-8 21.094,-8 10.541,0 10.541,8 21.083,8 10.551,0 10.551,-8 21.103,-8 10.545,0 10.545,8 21.09,8 10.55,0 10.55,-8 21.1,-8 10.555,0 10.555,8 21.109,8 10.532,0 10.532,-8 21.064,-8 10.546,0 10.546,8 21.092,8 10.558,0 10.558,-8 21.116,-8 10.56,0 10.56,8 21.119,8 1.136,0 2.144,-0.097 3.062,-0.262 C 383.236,375.198 330.208,352 268,352 c -3.066,0 -6.109,0.058 -9.128,0.169 -3.491,0.128 -6.947,0.332 -10.366,0.604 -0.172,0.014 -0.343,0.029 -0.515,0.043 z"
   style="fill:#ffdeb4"
   inkscape:connector-curvature="0" />

	<path
   id="path1557"
   d="m 63.151,408 c 10.539,0 10.539,-8 21.077,-8 10.537,0 10.537,8 21.073,8 10.527,0 10.527,-8 21.055,-8 4.424,0 6.989,1.412 9.258,3.049 19.872,-26.673 62.221,-46.163 112.892,-50.204 -0.171,-0.011 -0.344,-0.019 -0.515,-0.03 C 240.127,352.324 232.15,352 224,352 c -1.409,0 -2.814,0.009 -4.216,0.024 -6.494,0.069 -12.904,0.298 -19.212,0.679 -49.854,3.013 -93.381,15.513 -122.107,33.519 -0.737,0.462 -1.463,0.927 -2.18,1.396 -5.019,3.282 -9.553,6.738 -13.556,10.346 -1.715,1.546 -3.332,3.12 -4.848,4.72 -0.966,1.019 -1.887,2.05 -2.769,3.089 1.998,1.26 4.383,2.227 8.039,2.227 z"
   style="fill:#ffc986"
   inkscape:connector-curvature="0" />

	<path
   id="path1559"
   d="m 217.73,85.613 8.927,7.351 120.49,99.227 c 0,-23.734 -5.693,-42.443 -14.747,-57.191 H 296 c 0,-10.902 8.447,-19.811 19.151,-20.59 C 285.721,87.989 243.65,81.914 223.221,80.558 L 360,67.322 C 306.624,13.946 247.618,51.243 223.273,71.241 252.667,21.849 291.147,8.16 291.147,8.16 248.186,-3.8 226.103,17.257 215.855,41.172 206.908,18.769 185.25,-2.13 139.146,0.175 c 0,0 35.202,17.468 63.141,69.772 C 177.029,49.701 119.381,15.086 67.146,67.322 l 135.911,13.153 c -107.66,6.221 -103.911,135.7 -103.911,135.7 l 106.95,-129.868 0.448,-0.544 c 2.478,-2.138 6.728,-2.513 11.186,-0.15 z"
   style="fill:#8ce696"
   inkscape:connector-curvature="0" />

	<path
   id="path1561"
   d="m 296,135 h 36.4 46.267 c 0,-17.121 -13.879,-31 -31,-31 -9.749,0 -18.339,4.59 -24.022,11.626 -2.189,-0.79 -4.517,-1.293 -6.978,-1.293 -0.512,0 -1.014,0.04 -1.516,0.077 C 304.447,115.189 296,124.098 296,135 Z"
   style="fill:#cceffc"
   inkscape:connector-curvature="0" />

	<path
   id="path1563"
   d="m 189,168 c -8.491,0 -15.973,3.998 -20.922,10.126 C 166.171,177.438 164.143,177 162,177 c -9.941,0 -18,8.058 -18,18 h 72 c 0,-14.912 -12.088,-27 -27,-27 z"
   style="fill:#cceffc"
   inkscape:connector-curvature="0" />

	<path
   id="path1565"
   d="m 272,272 c 0,-12.865 -7.596,-23.95 -18.544,-29.033 C 249.364,241.067 244.808,240 240,240 c -5.797,0 -11.192,1.579 -15.85,4.301 -3.428,2.003 -6.459,4.622 -8.946,7.701 -2.26,-0.815 -4.663,-1.335 -7.203,-1.335 -7.009,0 -13.209,3.395 -17.098,8.614 4.248,3.579 7.862,7.883 10.661,12.719 h 22.171 31.763 z"
   style="fill:#9edcf1"
   inkscape:connector-curvature="0" />

	<path
   id="path1567"
   d="m 325.72,295.418 c -2.683,-0.968 -5.537,-1.585 -8.554,-1.585 -13.991,0 -25.333,11.342 -25.333,25.333 h 101.333 c 0,-20.987 -17.013,-38 -38,-38 -11.949,10e-4 -22.479,5.627 -29.446,14.252 z"
   style="fill:#9edcf1"
   inkscape:connector-curvature="0" />

	<path
   id="path1569"
   d="M 190.902,259.281 C 182.551,252.246 171.774,248 160,248 c -15.095,0 -28.396,7.107 -37.195,18.002 C 119.415,264.779 115.811,264 112,264 94.327,264 80,278.326 80,296 h 128 c 0,-8.746 -2.351,-16.938 -6.438,-24 -2.798,-4.837 -6.412,-9.14 -10.66,-12.719 z"
   style="fill:#cceffc"
   inkscape:connector-curvature="0" />

	<path
   id="path1571"
   d="m 461.858,443.51 c -0.546,1.416 -1.188,2.783 -1.921,4.093 0.733,-1.311 1.375,-2.678 1.921,-4.093 z"
   style="fill:#95dcec"
   inkscape:connector-curvature="0" />

	<path
   id="path1573"
   d="m 458.172,450.401 c -0.721,1.024 -1.497,2.005 -2.33,2.936 0.834,-0.931 1.61,-1.912 2.33,-2.936 z"
   style="fill:#95dcec"
   inkscape:connector-curvature="0" />

	<path
   id="path1575"
   d="m 445.233,461.134 c -0.544,0.248 -1.097,0.48 -1.657,0.698 0.56,-0.217 1.112,-0.45 1.657,-0.698 z"
   style="fill:#95dcec"
   inkscape:connector-curvature="0" />

	<path
   id="path1577"
   d="m 454.627,454.627 c -2.348,2.348 -5.064,4.325 -8.047,5.855 2.983,-1.53 5.699,-3.506 8.047,-5.855 z"
   style="fill:#95dcec"
   inkscape:connector-curvature="0" />

	<path
   id="path1579"
   d="m 464,432 c 0,1.104 -0.056,2.196 -0.165,3.272 C 463.944,434.196 464,433.104 464,432 Z"
   style="fill:#95dcec"
   inkscape:connector-curvature="0" />

	<path
   id="path1581"
   d="m 463.835,435.272 c -0.246,2.427 -0.773,4.769 -1.531,7.004 0.758,-2.236 1.284,-4.578 1.531,-7.004 z"
   style="fill:#95dcec"
   inkscape:connector-curvature="0" />

	<path
   id="path1583"
   d="m 2.804,445.097 c -0.234,-0.522 -0.456,-1.051 -0.663,-1.587 0.208,0.536 0.429,1.065 0.663,1.587 z"
   style="fill:#95dcec"
   inkscape:connector-curvature="0" />

	<path
   id="path1585"
   d="m 442.842,408 c -10.579,0 -10.579,-8 -21.158,-8 -9.426,0 -10.446,6.367 -18.063,7.738 -0.918,0.165 -1.926,0.262 -3.062,0.262 C 390,408 390,400 379.44,400 c -10.558,0 -10.558,8 -21.116,8 -10.546,0 -10.546,-8 -21.092,-8 -10.532,0 -10.532,8 -21.064,8 -10.555,0 -10.555,-8 -21.109,-8 -10.55,0 -10.55,8 -21.1,8 -10.545,0 -10.545,-8 -21.09,-8 -10.551,0 -10.551,8 -21.103,8 -10.541,0 -10.541,-8 -21.083,-8 -10.547,0 -10.547,8 -21.094,8 -10.535,0 -10.535,-8 -21.07,-8 -10.547,0 -10.547,8 -21.093,8 -6.11,0 -8.678,-2.691 -11.811,-4.951 -2.269,-1.637 -4.834,-3.049 -9.258,-3.049 -10.527,0 -10.527,8 -21.055,8 -10.537,0 -10.537,-8 -21.073,-8 -10.539,0 -10.539,8 -21.077,8 -3.656,0 -6.041,-0.967 -8.039,-2.228 C 51.36,403.405 48.974,400 42.108,400 31.591,400 31.591,408 21.075,408 10.537,408 10.537,400 0,400 v 24 c 10.538,0 10.538,8 21.075,8 10.517,0 10.517,-8 21.033,-8 10.521,0 10.521,8 21.043,8 10.539,0 10.539,-8 21.077,-8 10.537,0 10.537,8 21.073,8 10.527,0 10.527,-8 21.055,-8 10.535,0 10.535,8 21.069,8 10.546,0 10.546,-8 21.093,-8 10.535,0 10.535,8 21.069,8 10.547,0 10.547,-8 21.095,-8 10.541,0 10.541,8 21.083,8 10.551,0 10.551,-8 21.103,-8 10.545,0 10.545,8 21.089,8 10.55,0 10.55,-8 21.101,-8 10.555,0 10.555,8 21.109,8 10.532,0 10.532,-8 21.064,-8 10.546,0 10.546,8 21.092,8 10.558,0 10.558,-8 21.116,-8 10.56,0 10.56,8 21.119,8 10.563,0 10.563,-8 21.125,-8 10.579,0 10.579,8 21.159,8 10.579,0 10.579,-8 21.158,-8 v -24 c -10.579,0 -10.579,8 -21.158,8 z"
   style="fill:#95dcec"
   inkscape:connector-curvature="0" />

	<path
   id="path1587"
   d="M 0.165,435.272 C 0.056,434.196 0,433.104 0,432 c 0,1.104 0.056,2.196 0.165,3.272 z"
   style="fill:#95dcec"
   inkscape:connector-curvature="0" />

	<path
   id="path1589"
   d="m 4.063,447.603 c -0.078,-0.139 -0.159,-0.275 -0.234,-0.415 0.075,0.14 0.156,0.276 0.234,0.415 z"
   style="fill:#95dcec"
   inkscape:connector-curvature="0" />

	<path
   id="path1591"
   d="m 7.702,452.811 c -0.321,-0.375 -0.634,-0.757 -0.938,-1.147 0.304,0.389 0.617,0.772 0.938,1.147 z"
   style="fill:#95dcec"
   inkscape:connector-curvature="0" />

	<path
   id="path1593"
   d="m 20.051,461.685 c -0.215,-0.087 -0.431,-0.17 -0.643,-0.261 0.213,0.091 0.429,0.175 0.643,0.261 z"
   style="fill:#95dcec"
   inkscape:connector-curvature="0" />

	<path
   id="path1595"
   d="m 1.696,442.276 c -0.758,-2.236 -1.284,-4.578 -1.531,-7.004 0.247,2.426 0.773,4.768 1.531,7.004 z"
   style="fill:#95dcec"
   inkscape:connector-curvature="0" />

	<path
   id="path1597"
   d="m 13.363,458.005 c -0.65,-0.467 -1.285,-0.954 -1.898,-1.468 0.613,0.514 1.248,1.001 1.898,1.468 z"
   style="fill:#95dcec"
   inkscape:connector-curvature="0" />

	<path
   id="path1599"
   d="m 17.192,460.366 c -0.486,-0.254 -0.965,-0.52 -1.436,-0.798 0.471,0.278 0.95,0.544 1.436,0.798 z"
   style="fill:#95dcec"
   inkscape:connector-curvature="0" />

	<path
   id="path1601"
   d="m 421.683,424 c -10.562,0 -10.562,8 -21.125,8 -10.56,0 -10.56,-8 -21.119,-8 -10.558,0 -10.558,8 -21.116,8 -10.546,0 -10.546,-8 -21.092,-8 -10.532,0 -10.532,8 -21.064,8 -10.554,0 -10.554,-8 -21.109,-8 -10.55,0 -10.55,8 -21.101,8 -10.544,0 -10.544,-8 -21.089,-8 -10.551,0 -10.551,8 -21.103,8 -10.542,0 -10.542,-8 -21.083,-8 -10.547,0 -10.547,8 -21.095,8 -10.535,0 -10.535,-8 -21.069,-8 -10.547,0 -10.547,8 -21.093,8 -10.535,0 -10.535,-8 -21.069,-8 -10.527,0 -10.527,8 -21.055,8 -10.537,0 -10.537,-8 -21.073,-8 -10.539,0 -10.539,8 -21.077,8 -10.521,0 -10.521,-8 -21.043,-8 -10.517,0 -10.517,8 -21.033,8 C 10.537,432 10.537,424 0,424 v 8 c 0,1.104 0.056,2.196 0.165,3.272 0.247,2.427 0.773,4.769 1.531,7.004 0.141,0.415 0.289,0.826 0.446,1.234 0.207,0.536 0.428,1.065 0.663,1.587 0.319,0.71 0.656,1.41 1.024,2.091 0.076,0.14 0.157,0.276 0.234,0.415 0.798,1.425 1.702,2.781 2.701,4.061 0.304,0.39 0.617,0.772 0.938,1.147 1.151,1.343 2.408,2.591 3.764,3.727 0.613,0.513 1.247,1.001 1.898,1.468 0.773,0.555 1.57,1.077 2.393,1.563 0.471,0.278 0.95,0.543 1.436,0.798 0.724,0.379 1.461,0.735 2.216,1.058 0.212,0.091 0.428,0.175 0.643,0.261 3.21,1.293 6.674,2.089 10.302,2.273 C 30.899,463.986 31.448,464 32,464 h 400 c 1.105,0 2.196,-0.056 3.272,-0.165 2.901,-0.295 5.684,-0.985 8.304,-2.002 0.56,-0.218 1.112,-0.45 1.657,-0.698 0.455,-0.207 0.904,-0.424 1.348,-0.652 2.983,-1.53 5.699,-3.507 8.047,-5.855 0.418,-0.418 0.821,-0.851 1.215,-1.291 0.833,-0.93 1.609,-1.912 2.33,-2.936 0.634,-0.9 1.224,-1.833 1.764,-2.799 0.733,-1.31 1.375,-2.677 1.921,-4.093 0.157,-0.407 0.305,-0.819 0.446,-1.234 0.758,-2.236 1.284,-4.578 1.531,-7.004 0.109,-1.076 0.165,-2.167 0.165,-3.272 v -8 c -10.579,0 -10.579,8 -21.158,8 C 432.262,432 432.262,424 421.683,424 Z"
   style="fill:#82c8dc"
   inkscape:connector-curvature="0" />

</g>
      <g
         id="g1605">
</g>
      <g
         id="g1607">
</g>
      <g
         id="g1609">
</g>
      <g
         id="g1611">
</g>
      <g
         id="g1613">
</g>
      <g
         id="g1615">
</g>
      <g
         id="g1617">
</g>
      <g
         id="g1619">
</g>
      <g
         id="g1621">
</g>
      <g
         id="g1623">
</g>
      <g
         id="g1625">
</g>
      <g
         id="g1627">
</g>
      <g
         id="g1629">
</g>
      <g
         id="g1631">
</g>
      <g
         id="g1633">
</g>
    </g>
    <text
       xml:space="preserve"
       style="font-style:normal;font-variant:normal;font-weight:normal;font-stretch:normal;font-size:15.15312672px;line-height:1.25;font-family:Broadway;-inkscape-font-specification:Broadway;text-align:start;letter-spacing:0px;word-spacing:0px;text-anchor:start;fill:#82c8dc;fill-opacity:1;stroke:none;stroke-width:0.37882817"
       x="1.1254177"
       y="286.99594"
       id="text1689"
       transform="scale(1.0113676,0.98876015)"><tspan
         sodipodi:role="line"
         id="tspan1687"
         x="1.1254177"
         y="286.99594"
         style="fill:#82c8dc;fill-opacity:1;stroke-width:0.37882817">I</tspan></text>
  </g>
</svg>
